HIERARCHY
ROOT hip
{
	OFFSET 0.000000 0.000000 0.000000 
	CHANNELS 6 Xposition Yposition Zposition Xrotation Yrotation Zrotation
	JOINT abdomen
	{
		OFFSET 0.000000 3.402643 0.000000 
		CHANNELS 3 Xrotation Yrotation Zrotation
		JOINT chest
		{
			OFFSET 0.000000 8.438565 -0.680529 
			CHANNELS 3 Xrotation Yrotation Zrotation
			JOINT neck
			{
				OFFSET 0.000000 9.885400 -0.272212 
				CHANNELS 3 Xrotation Yrotation Zrotation
				JOINT head
				{
					OFFSET 0.000000 3.130431 0.000000 
					CHANNELS 3 Xrotation Yrotation Zrotation
					End Site
					{
						OFFSET 0.000000 3.039250 0.000000 
					}
				}
			}
			JOINT rCollar
			{
				OFFSET -3.238290 6.669187 -0.816635 
				CHANNELS 3 Xrotation Yrotation Zrotation
				JOINT rShldr
				{
					OFFSET -2.515050 0.000000 0.000000 
					CHANNELS 3 Xrotation Yrotation Zrotation
					JOINT rForeArm
					{
						OFFSET -11.517700 0.000000 0.000000 
						CHANNELS 3 Xrotation Yrotation Zrotation
						JOINT rHand
						{
							OFFSET -9.026700 0.000000 0.000000 
							CHANNELS 3 Xrotation Yrotation Zrotation
							End Site
							{
								OFFSET -4.028470 0.000000 0.000000 
							}
						}
					}
				}
			}
			JOINT lCollar
			{
				OFFSET 3.238290 6.669187 -0.816635 
				CHANNELS 3 Xrotation Yrotation Zrotation
				JOINT lShldr
				{
					OFFSET 2.515050 0.000000 0.000000 
					CHANNELS 3 Xrotation Yrotation Zrotation
					JOINT lForeArm
					{
						OFFSET 11.517700 0.000000 0.000000 
						CHANNELS 3 Xrotation Yrotation Zrotation
						JOINT lHand
						{
							OFFSET 9.026700 0.000000 0.000000 
							CHANNELS 3 Xrotation Yrotation Zrotation
							End Site
							{
								OFFSET 4.028470 0.000000 0.000000 
							}
						}
					}
				}
			}
		}
	}
	JOINT rThigh
	{
		OFFSET -4.983750 -1.633274 1.361059 
		CHANNELS 3 Xrotation Yrotation Zrotation
		JOINT rShin
		{
			OFFSET 2.041588 -20.007561 0.000000 
			CHANNELS 3 Xrotation Yrotation Zrotation
			JOINT rFoot
			{
				OFFSET 0.000000 -19.190928 -1.224953 
				CHANNELS 3 Xrotation Yrotation Zrotation
				End Site
				{
					OFFSET 0.000000 -2.449906 4.627600 
				}
			}
		}
	}
	JOINT lThigh
	{
		OFFSET 4.983750 -1.633274 1.361059 
		CHANNELS 3 Xrotation Yrotation Zrotation
		JOINT lShin
		{
			OFFSET -2.041588 -20.007561 0.000000 
			CHANNELS 3 Xrotation Yrotation Zrotation
			JOINT lFoot
			{
				OFFSET 0.000000 -19.190928 -1.224953 
				CHANNELS 3 Xrotation Yrotation Zrotation
				End Site
				{
					OFFSET 0.000000 -2.449906 4.627600 
				}
			}
		}
	}
}
MOTION
Frames: 12
Frame Time: 0.033333
0.000000 44.534996 0.000000 0.334071 -9.521322 -0.199443 1.576066 0.252508 -0.510321 5.265686 0.789050 -1.726895 0.000000 0.000000 0.000000 0.000000 -0.000001 0.000000 0.000000 -0.000002 0.000001 10.348590 26.407339 72.855927 1.284067 36.584911 -0.450553 0.000001 -0.000001 0.000000 0.000000 -0.000002 0.000002 5.520148 -54.609089 -62.717621 0.096542 -3.216558 0.004976 0.000003 0.000000 0.000004 -5.137292 -1.346990 -13.901470 17.106581 0.148996 -0.039907 -0.856695 0.913078 0.297927 -2.736011 1.826136 6.056158 7.973092 -0.070783 0.013270 -0.681627 1.876018 0.637171 
-0.287331 44.467831 -0.387382 0.260653 -9.401774 -0.111659 1.598114 0.366296 -0.520909 5.341709 1.164713 -1.774922 0.000001 -0.000001 0.000000 -0.000001 0.000001 0.000000 0.000000 -0.000002 0.000002 9.661060 27.490101 72.643257 1.240036 35.638840 -0.423957 0.000000 0.000000 0.000000 0.000000 -0.000002 0.000002 5.027897 -56.008911 -63.248421 0.104284 -3.473944 0.005615 -0.000001 0.000000 -0.000001 -4.518710 -1.577881 -15.344300 14.854600 0.130172 -0.032127 -0.438339 1.241358 0.404953 -3.476310 1.690835 6.547059 8.521411 -0.075581 0.014530 -0.929552 1.197954 0.414021 
-0.750322 44.380871 -0.767654 0.181193 -9.353794 0.040700 1.639971 0.490174 -0.530058 5.485244 1.573793 -1.820292 0.000000 0.000000 0.000000 0.000000 0.000000 0.000000 0.000000 -0.000002 0.000002 8.982933 28.491341 72.611221 1.182934 34.377331 -0.390332 -0.000002 -0.000002 0.000001 0.000000 -0.000002 0.000002 4.892680 -57.026569 -63.501030 0.119087 -3.965150 0.006904 -0.000001 0.000000 -0.000001 -4.531025 -1.752047 -16.352680 13.142670 0.115664 -0.026705 0.096955 1.418617 0.469414 -4.218902 1.529550 7.290981 9.205470 -0.081545 0.016170 -1.088935 0.244805 0.089943 
-1.367748 44.259365 -1.156551 0.083624 -9.532888 0.067680 1.699015 0.608889 -0.533481 5.686725 1.966088 -1.847456 0.000001 0.000000 0.000000 0.000000 0.000000 0.000000 0.000000 -0.000002 0.000002 8.001516 29.871910 72.856956 1.079775 31.997219 -0.332213 -0.000001 0.000001 0.000000 0.000000 -0.000002 0.000002 4.866424 -57.846340 -63.752579 0.126496 -4.210661 0.007605 0.000000 0.000000 0.000000 -5.202895 -1.867920 -16.594419 12.359170 0.108974 -0.024370 1.478052 1.689651 0.589543 -4.798737 1.348462 8.411427 9.763620 -0.086396 0.017560 -1.291564 -0.636910 -0.210102 
-2.009918 44.073261 -1.519970 0.107007 -9.872828 0.191048 1.768584 0.713755 -0.525818 5.922706 2.313341 -1.837489 0.000000 0.000000 0.000000 0.000000 0.000000 0.000000 -0.000001 -0.000002 0.000002 6.822833 31.362600 73.135078 0.981710 29.611851 -0.280344 -0.000002 0.000000 0.000005 -0.000001 -0.000002 0.000002 4.540437 -58.713200 -64.490829 0.120935 -4.026300 0.007077 0.000002 -0.000002 0.000001 -6.373912 -1.925028 -16.678801 12.701140 0.111899 -0.025378 3.272932 2.671689 0.946948 -5.206089 1.173616 9.424499 9.983805 -0.088305 0.018119 -1.918450 -0.983486 -0.339691 
-2.703257 43.855911 -1.853836 0.281255 -10.215508 0.412129 1.840311 0.803229 -0.503497 6.164571 2.611217 -1.777841 0.000000 0.000000 0.000000 0.000000 0.000000 0.000000 0.000000 -0.000002 0.000001 5.752825 32.587811 73.345863 0.915204 27.925350 -0.247174 0.000000 0.000000 0.000000 0.000000 -0.000002 0.000001 4.193715 -59.312241 -65.658783 0.107327 -3.574962 0.005867 -0.000001 0.000000 -0.000001 -7.880722 -1.954403 -16.528240 14.014850 0.123079 -0.029414 3.520217 4.377415 1.484377 -5.545140 1.004040 10.345620 9.958613 -0.088085 0.018058 -2.595137 -0.624439 -0.251250 
-3.674526 43.707245 -2.225574 0.434107 -10.404560 0.178335 1.908352 0.878485 -0.466534 6.392598 2.864003 -1.668175 0.000000 0.000000 0.000000 0.000000 0.000000 0.000000 -0.000002 -0.000001 0.000002 4.929120 33.472271 73.712837 0.852262 26.278259 -0.217364 0.000000 0.000004 -0.000001 -0.000002 -0.000001 0.000002 4.550246 -59.331860 -66.219917 0.096566 -3.217428 0.004983 -0.000001 0.000000 -0.000001 -9.421110 -2.059909 -15.124970 15.940640 0.139292 -0.035784 1.773317 5.597757 1.853564 -5.897511 0.799886 12.106040 9.839689 -0.087050 0.017756 -2.014025 -0.220027 -0.127420 
-4.946598 43.668503 -2.663956 0.575384 -10.009027 -0.609800 1.972252 0.938025 -0.418024 6.605233 3.066476 -1.518336 0.000000 0.000000 0.000000 0.000000 0.000000 0.000000 -0.000001 -0.000001 0.000002 4.485445 33.952000 74.249611 0.765668 23.932280 -0.179010 0.000001 0.000000 0.000001 -0.000001 -0.000001 0.000002 5.599021 -59.110889 -65.421402 0.090506 -3.015850 0.004517 0.000000 0.000000 0.000000 -10.852990 -2.307473 -12.432420 18.337481 0.159161 -0.044476 0.104138 4.654967 1.555132 -6.687066 0.449491 14.851740 10.071620 -0.089066 0.018349 0.224922 -0.717836 -0.297677 
-6.264864 43.648788 -3.105198 0.898054 -8.895225 -1.334124 2.036831 0.976327 -0.361659 6.818570 3.199734 -1.339938 0.000000 0.000000 0.000000 0.000000 0.000000 0.000000 -0.000001 -0.000002 0.000002 4.839242 33.565880 74.463631 0.686291 21.702021 -0.146690 0.000001 -0.000001 0.000000 0.000000 -0.000002 0.000002 6.600597 -59.174709 -63.923199 0.075166 -2.505658 0.003436 -0.000005 0.000000 -0.000001 -12.423710 -2.623685 -9.645177 21.211960 0.182488 -0.055981 -0.328186 1.256427 0.494480 -8.285435 -0.058751 17.468430 11.180520 -0.098646 0.021300 2.642948 -1.503537 -0.486942 
-7.449017 43.596489 -3.497387 1.352760 -7.586588 -1.629399 2.109825 0.987144 -0.299087 7.058399 3.242683 -1.137815 0.000000 0.000000 0.000000 0.000000 0.000000 0.000000 -0.000001 -0.000002 0.000002 5.946264 32.237720 74.057327 0.662478 21.018379 -0.137542 0.000002 0.000002 0.000000 0.000000 -0.000002 0.000002 6.995487 -59.851799 -62.546730 0.028871 -0.963274 0.000966 0.000003 0.000003 0.000005 -13.854740 -2.940009 -7.534122 23.256729 0.198706 -0.064878 -1.132280 -1.837421 -0.558270 -10.227400 -0.584639 19.031050 12.790530 -0.112461 0.025917 4.028566 -0.851357 -0.236100 
-8.488661 43.574821 -3.856213 1.715888 -6.458541 -1.615460 2.198801 0.967545 -0.229024 7.350146 3.185801 -0.907343 0.000001 0.000000 0.000000 0.000000 0.000000 0.000000 -0.000001 -0.000002 0.000002 6.557718 31.338760 73.647537 0.661018 20.976219 -0.136985 0.000002 0.000002 -0.000001 0.000000 -0.000002 0.000002 7.094484 -60.840321 -61.206501 -0.034609 1.155345 -0.000376 0.000003 0.000003 0.000005 -14.296280 -3.276578 -5.975461 22.676380 0.194138 -0.062296 -3.277380 -2.358956 -0.830810 -11.826590 -0.989192 19.475830 14.189440 -0.124363 0.030233 3.971328 0.763727 0.274271 
-9.382671 43.595665 -4.197445 1.948911 -5.659007 -1.438115 2.308880 0.919125 -0.148413 7.711148 3.035218 -0.638392 0.000001 0.000000 0.000000 0.000001 0.000000 0.000000 -0.000001 -0.000002 0.000002 5.892433 31.866899 73.649277 0.637312 20.288900 -0.128164 -0.000001 0.000000 0.000001 0.000001 -0.000002 0.000002 7.856340 -61.106079 -59.564129 -0.060339 2.013714 -0.000254 0.000004 -0.000001 0.000000 -14.073230 -3.614661 -4.709614 21.001350 0.180791 -0.055113 -5.535329 -2.044368 -0.725653 -12.908570 -1.209077 19.129681 14.965750 -0.130914 0.032756 2.535881 1.558584 0.525360 
